<svg preserveAspectRatio="none" overflow="visible" style="display: block;" width="24" height="24" viewBox="0 0 24 24" fill="none" xmlns="http://www.w3.org/2000/svg">
<g id="Logo/Google">
<path id="Vector" d="M21.805 10.023H12.625V13.978H17.907C17.679 15.248 16.995 16.324 15.967 17.045V19.593H19.107C20.947 17.899 22.005 15.403 22.005 12.429C22.005 11.613 21.932 10.831 21.805 10.023Z" fill="#4285F4"/>
<path id="Vector_2" d="M12.625 22C15.25 22 17.452 21.13 19.061 19.593L15.921 17.045C15.051 17.629 13.939 17.975 12.625 17.975C10.091 17.975 7.943 16.263 7.175 13.961H3.93V16.586C4.73324 18.2071 5.97226 19.5724 7.50808 20.5287C9.04391 21.485 10.8158 21.9945 12.625 22Z" fill="#34A853"/>
<path id="Vector_3" d="M7.175 13.961C6.9625 13.3294 6.85936 12.6663 6.87 12C6.87 11.32 6.987 10.66 7.175 10.039V7.414H3.93C3.12316 8.81153 2.67483 10.3871 2.625 12C2.625 13.575 3.002 15.067 3.93 16.586L7.175 13.961Z" fill="#FBBC05"/>
<path id="Vector_4" d="M12.625 6.025C14.055 6.025 15.338 6.517 16.348 7.483L19.138 4.693C17.446 3.118 15.246 2.25 12.625 2.25C10.8418 2.23198 9.08782 2.70403 7.55452 3.61467C6.02122 4.5253 4.76745 5.83954 3.93 7.414L7.175 10.039C7.943 7.737 10.091 6.025 12.625 6.025Z" fill="#EA4335"/>
</g>
</svg>
